<?xml version="1.0" encoding="UTF-8" standalone="no"?>
<svg
   version="1.1"
   id="svg31"
   width="172.54306"
   height="199.46913"
   xmlns="http://www.w3.org/2000/svg"
   xmlns:svg="http://www.w3.org/2000/svg">
  <defs
     id="defs31" />
  <path
     fill="#fff2ea"
     d="m 37.276737,139.08492 q 0.06,-0.18 0.31,-0.44 4.32,-4.45 12.6,-11.41 15.86,-13.33 24.73,-21.01 1.29,-1.11 1.68,-2.38 a 1.04,1.05 7.3 0 0 -1.04,-1.35 q -12.67,0.47 -28.12,-0.08 -20.17,-0.72 -40.9999999,-1.16 -4.15,-0.09 -5.44000004,-0.56 -0.63,-0.23 -0.8,-0.43 a 0.81,0.82 66.8 0 1 0.54,-1.340001 q 5.93000004,-0.58 15.69999994,-0.73 12.91,-0.19 59.89,-0.94 a 0.94,0.93 8.1 0 0 0.88,-0.65 q 0.41,-1.34 -0.85,-2.27 -2.62,-1.95 -5.3,-4.21 -16.18,-13.64 -32.57,-28.93 a 2.04,2.03 26.8 0 1 -0.61,-1.85 l 0.03,-0.21 a 0.72,0.72 0 0 1 1.14,-0.45 q 7.69,5.77 15.43,12.17 9.06,7.49 13.48,10.86 6.04,4.6 13.16,11.27 a 1.47,1.47 0 0 0 2.35,-0.47 q 0.11,-0.25 0.14,-2.02 c 0.15,-8.18 -0.38,-19.03 -0.12,-28.42 q 0.26,-9.34 0.53,-38.21 c 0.08,-8.11 0.76,-14.9900002 0.74,-22.4100002 a 1.45,1.44 87.2 0 1 1.31,-1.44999998 h 0.06 a 1.27,1.27 0 0 1 1.38,1.19999998 c 1.08,19.7900002 1.11,40.9900002 1.5,65.9000002 0.13,7.95 -0.64,17.56 -0.26,24.66 a 1.29,1.29 0 0 0 1.46,1.21 q 0.51,-0.07 1.3,-0.68 2.28,-1.77 4.6,-3.6 15.230003,-12.03 32.630003,-26.14 0.83,-0.67 4.56,-3.19 a 1.04,1.04 0 0 1 1.5,1.36 q -0.38,0.7 -1.63,1.74 c -10.57,8.77 -24.92,22.4 -36.620003,31.38 q -1.08,0.83 -1.54,1.64 a 1.1,1.1 0 0 0 0.94,1.64 q 23.410003,0.32 67.810003,1.27 6.03,0.13 7.91,0.64 0.47,0.13 0.66,0.31 a 0.81,0.86 63.5 0 1 -0.51,1.380001 q -2.13,0.41 -3.24,0.42 -8.4,0.09 -21.49,0.78 c -8.07,0.43 -17.07,0.71 -22.65,0.49 q -2.84,-0.11 -11.68,0.25 c -5.21,0.2 -9.37,-0.1 -14.320003,-0.12 q -2.07,0 -3.41,0.75 a 0.56,0.56 0 0 0 -0.12,0.9 q 17.600003,16.46 35.370003,30.96 2.51,2.04 3.74,4.05 a 0.88,0.88 0 0 1 -0.87,1.33 q -0.92,-0.13 -2.01,-0.98 -19.77,-15.53 -39.720003,-32.04 -0.49,-0.41 -1.12,-0.6 a 1.11,1.11 0 0 0 -1.42,1.06 q 0.13,45.16 -1.47,90.32 a 1.22,1.21 3.4 0 1 -1.32,1.17 l -0.42,-0.04 a 0.79,0.77 0 0 1 -0.71,-0.7 q -0.46,-4.57 -0.59,-9.48 -0.89,-35.39 -0.77,-67.48 c 0.02,-4.95 -0.35,-9.56 -0.29,-14.09 q 0.01,-0.48 -0.14,-0.67 a 1.26,1.25 54 0 0 -1.64,-0.27 q -0.68,0.42 -4.41,3.19 -0.7,0.52 -29.58,23.91 -4.3,3.48 -9.06,6.22 a 0.83,0.83 0 0 1 -1.2,-0.97 z"
     id="path2" />
  <ellipse
     fill="#fff2ea"
     cx="-24.516201"
     cy="54.526131"
     transform="rotate(-91.1)"
     rx="4.3800001"
     ry="3.99"
     id="ellipse4" />
  <ellipse
     fill="#fff2ea"
     cx="-42.186455"
     cy="113.9984"
     transform="rotate(-92.9)"
     rx="4.3200002"
     ry="3.97"
     id="ellipse5" />
  <circle
     fill="#fff2ea"
     cx="73.386749"
     cy="51.294922"
     r="4.23"
     id="circle5" />
  <ellipse
     fill="#fff2ea"
     cx="-104.01986"
     cy="152.06279"
     transform="rotate(-84)"
     rx="4.5"
     ry="3.6900001"
     id="ellipse6" />
  <ellipse
     fill="#fff2ea"
     cx="-122.68389"
     cy="-94.08551"
     transform="rotate(-152.7)"
     rx="4.1100001"
     ry="3.77"
     id="ellipse7" />
</svg>
